<svg xmlns="http://www.w3.org/2000/svg" viewBox="0 0 512 512" fill="none">
  <!-- 
     ADJUSTABLE SETTINGS:
     - Change 'stroke="#000000"' to any color (e.g., #333333 or #4F46E5)
     - Change 'stroke-width="40"' to make lines thinner or thicker
  -->
  
  <!-- The Icon: A continuous 4-loop neural knot -->
  <path 
    d="M256 128C256 128 256 64 320 64C384 64 384 128 384 128C384 192 320 256 256 256C192 256 128 192 128 128C128 64 192 64 256 64" 
    stroke="#000000" 
    stroke-width="48" 
    stroke-linecap="round" 
    stroke-linejoin="round"
    transform="rotate(0 256 256)" 
  />
  <path 
    d="M384 256C384 256 448 256 448 320C448 384 384 384 384 384C320 384 256 320 256 256C256 192 320 128 384 128C448 128 448 192 448 256" 
    stroke="#000000" 
    stroke-width="48" 
    stroke-linecap="round" 
    stroke-linejoin="round"
  />
  <path 
    d="M256 384C256 384 256 448 192 448C128 448 128 384 128 384C128 320 192 256 256 256C320 256 384 320 384 384C384 448 320 448 256 448" 
    stroke="#000000" 
    stroke-width="48" 
    stroke-linecap="round" 
    stroke-linejoin="round"
  />
  <path 
    d="M128 256C128 256 64 256 64 192C64 128 128 128 128 128C192 128 256 192 256 256C256 320 192 384 128 384C64 384 64 320 64 256" 
    stroke="#000000" 
    stroke-width="48" 
    stroke-linecap="round" 
    stroke-linejoin="round"
  />
</svg>